<?xml version="1.0" encoding="utf-8"?>
<svg version="1.1" x="0px" y="0px" viewBox="0 0 375.995 629.99875" style="enable-background:new 0 0 375.995 503.999;" xmlns="http://www.w3.org/2000/svg">
  <defs/>
  <path d="M372.347,337.252c-50.099-4.432-93.686,11.25-135.834,26.415c-22.94,8.253-44.62,16.048-66.338,20.219  c-1.598-7.223-3.539-14.616-5.617-22.517c-7.166-27.24-16.083-61.143-18.828-116.331c-0.003-0.056-0.02-0.107-0.025-0.163  c8.816-5.459,13.641-12.963,20.436-23.545c3.91-6.089,8.34-12.99,14.678-21.365c3.123-4.127,5.376-8.724,6.696-13.66  c2.325-8.697,10.524-38.6,18.417-58.258c1.715-4.271,1.148-9.062-1.517-12.813c-2.655-3.737-6.976-5.839-11.548-5.629  c-12.647,0.59-22.519,10.291-30.18,29.659c-2.521,6.372-6.381,11.948-11.469,16.663c-0.712-4.438-0.266-9.645,0.085-11.882  l13.747-99.104c2.087-14.641-5.004-22.547-12.958-23.886c-8.266-1.403-18.408,4.156-20.934,17.148l-11.519,56.954l0.373-72.362  c0.232-14.517-9.083-22.578-17.965-22.792c-8.374-0.198-17.63,6.585-18.127,21.961l-2.226,66.229L74.469,37.83  c-2.146-14.754-11.857-20.303-19.98-19.223c-8.722,1.166-16.658,9.689-14.948,23.726l12.272,100.99  c-0.254,0.189-0.498,0.375-0.741,0.562L30.767,72.625c-0.011-0.039-0.022-0.078-0.035-0.117  C26.924,60.54,17.792,56.073,10.74,57.846C3.878,59.571-1.918,67.355,0.6,80.856c0.007,0.041,0.016,0.081,0.024,0.122  c1.394,6.369,4.913,25.566,8.987,47.796c5.82,31.756,13.064,71.276,17.81,93.668c4.236,21.469,14.458,33.116,24.705,39.736  c5.042,27.991,5.277,60.537,5.502,92.021c0.325,45.579,0.631,88.631,14.48,118.685c9.535,20.691,31.588,33.087,54.875,30.849  c32.005-3.077,106.956-10.283,198.252-40.723c3.89-1.298,8.175,0.431,9.967,4.019c3.633,7.273,8.295,18.973,9.875,33.407  c0.224,2.048,1.957,3.565,3.971,3.564c0.146,0,0.292-0.008,0.44-0.023c2.196-0.24,3.782-2.216,3.541-4.412  c-1.708-15.61-6.745-28.254-10.67-36.111c-3.562-7.129-12.01-10.583-19.655-8.033c-90.435,30.153-164.752,37.298-196.487,40.35  c-19.908,1.904-38.731-8.629-46.843-26.233c-13.127-28.487-13.428-70.702-13.746-115.395c-0.211-29.596-0.436-60.118-4.62-87.306  c4.985,2.083,9.519,3.218,12.804,4.039c1.41,0.353,2.628,0.656,3.546,0.943c0.397,0.125,0.799,0.184,1.195,0.184  c1.703,0,3.282-1.096,3.817-2.808c0.659-2.108-0.516-4.352-2.624-5.011c-1.141-0.356-2.463-0.688-3.995-1.07  c-11.818-2.952-33.817-8.448-40.492-42.273c-4.734-22.339-11.967-61.8-17.778-93.507c-4.242-23.146-7.596-41.443-9.027-48.001  c-1.543-8.357,1.012-12.915,4.237-13.726c3.411-0.868,8.083,2.051,10.4,9.273l21.35,74.926c-0.937,0.994-1.442,1.627-1.516,1.721  c-1.362,1.732-1.063,4.235,0.665,5.604c0.733,0.581,1.608,0.862,2.477,0.862c1.179,0,2.347-0.519,3.138-1.51  c1.021-1.282,25.596-31.166,76.398-13.129c2.08,0.738,4.368-0.35,5.108-2.432c0.739-2.081-0.35-4.368-2.431-5.107  c-2.798-0.993-5.524-1.847-8.18-2.577l18.905-93.475c1.565-8.048,7.222-11.576,11.759-10.816c5.034,0.848,7.533,6.684,6.365,14.883  l-13.737,99.039c-0.194,1.22-1.614,10.897,0.931,18.493c-2.121,1.467-4.313,2.892-6.599,4.374  c-15.574,10.096-33.227,21.54-34.344,54.173c-0.076,2.208,1.653,4.059,3.861,4.135c2.192,0.051,4.059-1.653,4.134-3.861  c0.975-28.463,15.414-37.823,30.701-47.733c3.153-2.045,6.414-4.158,9.491-6.421c8.551-6.285,14.795-14.299,18.561-23.818  c6.381-16.133,13.941-24.183,23.112-24.609c1.874-0.106,3.567,0.74,4.654,2.271c1.097,1.544,1.321,3.438,0.615,5.198  c-8.061,20.073-16.368,50.366-18.722,59.172c-1.052,3.934-2.851,7.601-5.347,10.899c-6.523,8.621-11.241,15.968-15.031,21.87  c-9.981,15.546-14.537,22.641-34.493,27.356c-2.15,0.508-3.481,2.662-2.973,4.813c0.435,1.841,2.077,3.081,3.889,3.081  c0.305,0,0.614-0.035,0.923-0.108c4.266-1.008,7.938-2.138,11.161-3.411c2.971,54.068,11.787,87.616,18.903,114.666  c8.997,34.203,14.941,56.8,2.176,97.1c-0.667,2.106,0.5,4.354,2.605,5.021c0.402,0.127,0.809,0.188,1.209,0.188  c0.729,0,1.43-0.211,2.041-0.575l0.006,0.01c28.955-17.26,36.119-39.281,37.029-54.715c0.652-11.052-1.707-20.26-3.451-25.379  c13.372-4.003,26.848-8.845,40.784-13.859c41.333-14.871,84.071-30.247,132.422-25.974c2.206,0.201,4.142-1.433,4.336-3.632  C376.174,339.388,374.547,337.447,372.347,337.252z M64.486,135.904c-1.857,0.832-3.585,1.709-5.2,2.604l-11.804-97.14  c-1.082-8.884,3.239-14.185,8.066-14.83c4.49-0.604,9.633,3.016,11.003,12.437l13.215,92.119  C73.785,132.264,68.678,134.026,64.486,135.904z M111.453,131.245c-8.584-1.598-16.316-1.881-23.156-1.328l3.619-107.688  c0.323-9.985,5.222-14.307,9.938-14.228c5.163,0.125,10.311,5.203,10.159,14.711L111.453,131.245z"/>
</svg>